<mxfile host="app.diagrams.net" modified="2022-04-11T15:22:18.086Z" agent="5.0 (Macintosh; Intel Mac OS X 10_15_7) AppleWebKit/537.36 (KHTML, like Gecko) Chrome/100.0.4896.75 Safari/537.36" etag="0BRMp9JfVdQlVIA1P_EV" version="17.4.1" type="github">
  <diagram id="zmWSVabufeFTBVraKyuk" name="Page-1">
    <mxGraphModel dx="1461" dy="831" grid="1" gridSize="10" guides="1" tooltips="1" connect="1" arrows="1" fold="1" page="1" pageScale="1" pageWidth="1169" pageHeight="827" math="0" shadow="0">
      <root>
        <mxCell id="0" />
        <mxCell id="1" parent="0" />
        <mxCell id="v6_RPd99EKN4T1AolEmN-8" value="Application Node.JS" style="rounded=0;whiteSpace=wrap;html=1;align=left;labelPosition=center;verticalLabelPosition=top;verticalAlign=bottom;fontStyle=1" parent="1" vertex="1">
          <mxGeometry x="476" y="139" width="140" height="130" as="geometry" />
        </mxCell>
        <mxCell id="v6_RPd99EKN4T1AolEmN-13" style="edgeStyle=orthogonalEdgeStyle;rounded=0;orthogonalLoop=1;jettySize=auto;html=1;exitX=0.5;exitY=0.5;exitDx=0;exitDy=0;exitPerimeter=0;" parent="1" source="v6_RPd99EKN4T1AolEmN-9" edge="1">
          <mxGeometry relative="1" as="geometry">
            <mxPoint x="210" y="220" as="targetPoint" />
          </mxGeometry>
        </mxCell>
        <mxCell id="v6_RPd99EKN4T1AolEmN-9" value="Customer&lt;br&gt;Browser&amp;nbsp;&lt;br&gt;" style="shape=umlActor;verticalLabelPosition=bottom;verticalAlign=top;html=1;outlineConnect=0;" parent="1" vertex="1">
          <mxGeometry x="80" y="190" width="30" height="60" as="geometry" />
        </mxCell>
        <mxCell id="v6_RPd99EKN4T1AolEmN-10" value="Static content" style="rounded=0;whiteSpace=wrap;html=1;" parent="1" vertex="1">
          <mxGeometry x="230" y="159" width="120" height="30" as="geometry" />
        </mxCell>
        <mxCell id="v6_RPd99EKN4T1AolEmN-11" value="REST API- &lt;br&gt;Account" style="rounded=0;whiteSpace=wrap;html=1;" parent="1" vertex="1">
          <mxGeometry x="486" y="160" width="120" height="30" as="geometry" />
        </mxCell>
        <mxCell id="v6_RPd99EKN4T1AolEmN-12" value="REST API - &lt;br&gt;Payments" style="rounded=0;whiteSpace=wrap;html=1;" parent="1" vertex="1">
          <mxGeometry x="486" y="210" width="120" height="30" as="geometry" />
        </mxCell>
        <mxCell id="v6_RPd99EKN4T1AolEmN-15" value="" style="outlineConnect=0;dashed=0;verticalLabelPosition=bottom;verticalAlign=top;align=center;html=1;shape=mxgraph.aws3.certificate;fillColor=#5294CF;gradientColor=none;" parent="1" vertex="1">
          <mxGeometry x="236" y="277" width="30" height="42.5" as="geometry" />
        </mxCell>
        <mxCell id="v6_RPd99EKN4T1AolEmN-16" value="&lt;meta charset=&quot;utf-8&quot;&gt;&lt;span style=&quot;color: rgb(0, 0, 0); font-family: helvetica; font-size: 12px; font-style: normal; font-weight: 400; letter-spacing: normal; text-align: center; text-indent: 0px; text-transform: none; word-spacing: 0px; background-color: rgb(248, 249, 250); display: inline; float: none;&quot;&gt;Certificate for https://www.octanc.bank.de&lt;/span&gt;" style="text;whiteSpace=wrap;html=1;" parent="1" vertex="1">
          <mxGeometry x="270" y="277" width="100" height="30" as="geometry" />
        </mxCell>
        <mxCell id="v6_RPd99EKN4T1AolEmN-19" value="PKI Service (internal)" style="rounded=0;whiteSpace=wrap;html=1;fillColor=#FFFFFF;" parent="1" vertex="1">
          <mxGeometry x="220" y="380" width="120" height="60" as="geometry" />
        </mxCell>
        <mxCell id="v6_RPd99EKN4T1AolEmN-21" value="Webserver Apache" style="rounded=0;whiteSpace=wrap;html=1;align=left;labelPosition=center;verticalLabelPosition=top;verticalAlign=bottom;fontStyle=1" parent="1" vertex="1">
          <mxGeometry x="220" y="139" width="140" height="130" as="geometry" />
        </mxCell>
        <mxCell id="v6_RPd99EKN4T1AolEmN-23" value="Static Content&lt;br&gt;Products" style="rounded=0;whiteSpace=wrap;html=1;" parent="1" vertex="1">
          <mxGeometry x="230" y="159" width="120" height="30" as="geometry" />
        </mxCell>
        <mxCell id="v6_RPd99EKN4T1AolEmN-24" value="Single-page web-app" style="rounded=0;whiteSpace=wrap;html=1;" parent="1" vertex="1">
          <mxGeometry x="230" y="209" width="120" height="30" as="geometry" />
        </mxCell>
        <mxCell id="v6_RPd99EKN4T1AolEmN-28" style="edgeStyle=orthogonalEdgeStyle;rounded=0;orthogonalLoop=1;jettySize=auto;html=1;exitX=0.5;exitY=0.5;exitDx=0;exitDy=0;exitPerimeter=0;" parent="1" edge="1">
          <mxGeometry relative="1" as="geometry">
            <mxPoint x="475" y="209" as="targetPoint" />
            <mxPoint x="360" y="209" as="sourcePoint" />
          </mxGeometry>
        </mxCell>
        <mxCell id="v6_RPd99EKN4T1AolEmN-29" value="Database mySQL" style="rounded=0;whiteSpace=wrap;html=1;align=left;labelPosition=center;verticalLabelPosition=top;verticalAlign=bottom;fontStyle=1" parent="1" vertex="1">
          <mxGeometry x="740" y="139" width="140" height="61" as="geometry" />
        </mxCell>
        <mxCell id="v6_RPd99EKN4T1AolEmN-30" value="Account" style="rounded=0;whiteSpace=wrap;html=1;" parent="1" vertex="1">
          <mxGeometry x="750" y="150" width="120" height="30" as="geometry" />
        </mxCell>
        <mxCell id="v6_RPd99EKN4T1AolEmN-36" value="&lt;b&gt;IBM MQ&lt;/b&gt;" style="shape=image;html=1;verticalAlign=top;verticalLabelPosition=bottom;labelBackgroundColor=#ffffff;imageAspect=0;aspect=fixed;image=https://cdn0.iconfinder.com/data/icons/evericons-24px-vol-2/24/queue-128.png;fillColor=#FFB60A;" parent="1" vertex="1">
          <mxGeometry x="797.5" y="208" width="37" height="37" as="geometry" />
        </mxCell>
        <mxCell id="v6_RPd99EKN4T1AolEmN-41" style="edgeStyle=orthogonalEdgeStyle;rounded=0;orthogonalLoop=1;jettySize=auto;html=1;exitX=0.5;exitY=0.5;exitDx=0;exitDy=0;exitPerimeter=0;" parent="1" edge="1">
          <mxGeometry relative="1" as="geometry">
            <mxPoint x="731" y="173.5" as="targetPoint" />
            <mxPoint x="616" y="173.5" as="sourcePoint" />
          </mxGeometry>
        </mxCell>
        <mxCell id="v6_RPd99EKN4T1AolEmN-43" style="edgeStyle=orthogonalEdgeStyle;rounded=0;orthogonalLoop=1;jettySize=auto;html=1;exitX=0.5;exitY=0.5;exitDx=0;exitDy=0;exitPerimeter=0;" parent="1" edge="1">
          <mxGeometry relative="1" as="geometry">
            <mxPoint x="280" y="320" as="targetPoint" />
            <mxPoint x="280" y="380" as="sourcePoint" />
          </mxGeometry>
        </mxCell>
        <mxCell id="v6_RPd99EKN4T1AolEmN-45" style="edgeStyle=orthogonalEdgeStyle;rounded=0;orthogonalLoop=1;jettySize=auto;html=1;exitX=0.5;exitY=0.5;exitDx=0;exitDy=0;exitPerimeter=0;" parent="1" edge="1">
          <mxGeometry relative="1" as="geometry">
            <mxPoint x="780" y="226" as="targetPoint" />
            <mxPoint x="616" y="226" as="sourcePoint" />
          </mxGeometry>
        </mxCell>
        <mxCell id="v6_RPd99EKN4T1AolEmN-46" value="Operations" style="shape=umlActor;verticalLabelPosition=bottom;verticalAlign=top;html=1;outlineConnect=0;" parent="1" vertex="1">
          <mxGeometry x="531" y="510" width="30" height="60" as="geometry" />
        </mxCell>
        <mxCell id="v6_RPd99EKN4T1AolEmN-47" style="edgeStyle=orthogonalEdgeStyle;rounded=0;orthogonalLoop=1;jettySize=auto;html=1;" parent="1" edge="1">
          <mxGeometry relative="1" as="geometry">
            <mxPoint x="820" y="320" as="targetPoint" />
            <mxPoint x="820" y="270" as="sourcePoint" />
          </mxGeometry>
        </mxCell>
        <mxCell id="v6_RPd99EKN4T1AolEmN-53" value="&lt;b&gt;Payments Processing&lt;/b&gt;" style="rounded=0;whiteSpace=wrap;html=1;labelBackgroundColor=none;fillColor=#CCCCCC;" parent="1" vertex="1">
          <mxGeometry x="760" y="330" width="120" height="60" as="geometry" />
        </mxCell>
        <mxCell id="v6_RPd99EKN4T1AolEmN-54" value="Splunk &lt;font color=&quot;#ff3333&quot;&gt;$$$&lt;/font&gt;" style="shape=image;html=1;verticalAlign=top;verticalLabelPosition=bottom;labelBackgroundColor=#ffffff;imageAspect=0;aspect=fixed;image=https://cdn1.iconfinder.com/data/icons/100-basic-for-user-interface/32/29-Screen-128.png;fillColor=#CCCCCC;" parent="1" vertex="1">
          <mxGeometry x="505" y="334" width="80" height="80" as="geometry" />
        </mxCell>
        <mxCell id="v6_RPd99EKN4T1AolEmN-57" value="" style="shape=image;html=1;verticalAlign=top;verticalLabelPosition=bottom;labelBackgroundColor=#ffffff;imageAspect=0;aspect=fixed;image=https://cdn2.iconfinder.com/data/icons/bitsies/128/PieChart-128.png;fillColor=#CCCCCC;" parent="1" vertex="1">
          <mxGeometry x="530.5" y="345.5" width="29" height="29" as="geometry" />
        </mxCell>
        <mxCell id="v6_RPd99EKN4T1AolEmN-59" style="edgeStyle=orthogonalEdgeStyle;rounded=0;orthogonalLoop=1;jettySize=auto;html=1;exitX=0.5;exitY=0.5;exitDx=0;exitDy=0;exitPerimeter=0;" parent="1" edge="1">
          <mxGeometry relative="1" as="geometry">
            <mxPoint x="545.5" y="440" as="targetPoint" />
            <mxPoint x="545.5" y="500" as="sourcePoint" />
          </mxGeometry>
        </mxCell>
        <mxCell id="v6_RPd99EKN4T1AolEmN-60" value="Logs" style="edgeStyle=orthogonalEdgeStyle;rounded=0;orthogonalLoop=1;jettySize=auto;html=1;exitX=0.5;exitY=0.5;exitDx=0;exitDy=0;exitPerimeter=0;" parent="1" edge="1">
          <mxGeometry relative="1" as="geometry">
            <mxPoint x="545" y="324" as="targetPoint" />
            <mxPoint x="545" y="273" as="sourcePoint" />
          </mxGeometry>
        </mxCell>
      </root>
    </mxGraphModel>
  </diagram>
</mxfile>
